<?xml version="1.0" standalone="no"?>
<!DOCTYPE svg PUBLIC "-//W3C//DTD SVG 20010904//EN"
 "http://www.w3.org/TR/2001/REC-SVG-20010904/DTD/svg10.dtd">
<svg version="1.0" xmlns="http://www.w3.org/2000/svg"
 width="956.000000pt" height="955.000000pt" viewBox="0 0 956.000000 955.000000"
 preserveAspectRatio="xMidYMid meet">

<g transform="translate(0.000000,955.000000) scale(0.100000,-0.100000)"
fill="#000000" stroke="none">
<path d="M6343 9338 c-20 -18 -55 -53 -77 -78 -23 -24 -70 -76 -105 -115 -110
-120 -143 -157 -241 -265 -52 -58 -160 -177 -240 -265 -80 -87 -161 -177 -180
-198 -56 -63 -125 -140 -260 -287 -22 -25 -105 -116 -183 -202 -78 -87 -155
-164 -172 -172 -17 -9 -76 -17 -136 -20 -131 -7 -202 -25 -309 -80 -47 -24
-105 -46 -130 -49 -62 -8 -265 -70 -375 -115 -158 -63 -364 -195 -486 -310
-92 -87 -118 -122 -183 -249 -53 -103 -103 -155 -168 -175 -32 -10 -108 -12
-289 -10 l-246 3 -17 -35 c-14 -31 -16 -120 -16 -904 l0 -870 -175 -176 c-97
-97 -182 -176 -190 -176 -8 0 -22 -11 -31 -24 -14 -22 -16 -101 -18 -703 -2
-373 1 -688 5 -700 16 -44 81 -48 360 -19 l36 4 6 -127 c16 -311 92 -490 383
-901 91 -127 247 -304 449 -505 316 -316 692 -604 1147 -876 305 -183 409
-216 651 -206 199 8 317 44 524 164 611 352 1146 820 1542 1348 182 242 300
489 355 741 26 118 39 299 28 399 -5 50 -6 95 -3 101 6 12 154 173 284 311
l77 82 0 583 c0 321 3 626 6 678 5 85 3 98 -15 120 -19 23 -25 25 -108 24 -48
0 -125 -5 -171 -11 -63 -7 -88 -6 -100 3 -16 11 -17 75 -17 806 0 436 -4 804
-9 816 -16 46 -55 52 -330 52 l-254 0 -30 25 c-17 14 -46 55 -66 90 -88 161
-208 303 -331 396 -146 109 -357 213 -590 291 -88 30 -166 57 -173 62 -9 6 -5
17 19 44 54 63 269 300 319 353 14 14 63 68 110 120 99 109 81 89 196 215 50
54 160 176 245 270 262 289 256 282 239 325 -10 24 -107 120 -320 315 -137
127 -171 138 -237 82z m-123 -268 c12 -8 12 -10 -3 -16 -22 -8 -50 3 -42 16 8
12 25 13 45 0z m-12 -262 c7 -7 12 -17 12 -24 0 -10 -134 -148 -196 -201 -33
-28 -314 -295 -462 -438 -132 -128 -187 -173 -199 -162 -3 3 121 133 275 289
154 156 338 343 408 416 70 72 133 132 139 132 6 0 16 -5 23 -12z m142 -179
c0 -36 -31 -88 -70 -119 -42 -33 -60 -38 -60 -14 0 25 20 56 68 107 51 52 62
57 62 26z m-290 -322 c0 -8 -55 -66 -122 -131 -68 -65 -199 -193 -293 -284
-363 -354 -341 -335 -364 -323 -20 11 -30 55 -13 63 4 2 53 55 110 119 143
163 224 235 607 537 42 33 75 41 75 19z m-314 -936 c310 -89 383 -119 532
-218 156 -103 321 -294 415 -478 72 -143 110 -159 364 -149 l182 7 30 -30 c40
-40 46 -84 34 -228 -7 -76 -9 -310 -6 -642 6 -562 5 -575 -44 -594 -13 -5
-140 -18 -281 -29 -141 -11 -349 -29 -462 -39 -227 -20 -230 -20 -235 41 -2
18 -8 85 -14 148 -5 63 -11 270 -12 460 l-2 345 31 67 c17 37 36 95 42 128 11
59 5 175 -10 195 -4 6 -10 23 -14 38 -26 109 -157 219 -305 256 -99 25 -312
28 -469 7 -75 -9 -95 -9 -104 1 -7 9 -7 13 0 13 21 0 31 88 16 143 -18 69 -19
324 0 392 7 28 22 69 34 91 24 46 109 127 127 120 7 -2 75 -22 151 -45z
m-1579 -127 c-12 -121 -91 -240 -195 -290 -18 -8 -30 -19 -27 -24 10 -16 77
-29 138 -27 52 1 60 -2 86 -28 30 -32 71 -124 71 -160 0 -34 -36 -73 -99 -105
-76 -38 -123 -92 -177 -203 -42 -86 -54 -139 -35 -151 17 -11 51 -97 51 -131
0 -47 -25 -107 -110 -260 -40 -71 -78 -141 -86 -155 -7 -14 -33 -54 -58 -90
-144 -208 -178 -282 -196 -425 -11 -87 -6 -195 12 -253 12 -38 54 -92 73 -92
7 0 15 -6 18 -12 3 -10 34 -13 113 -12 101 0 118 4 230 42 67 23 139 51 160
64 36 21 86 26 178 18 24 -2 37 6 65 37 46 51 102 93 168 127 64 32 81 33 88
4 3 -13 18 -85 34 -161 l29 -137 -22 -5 c-62 -13 -805 -89 -1236 -125 -135
-12 -307 -27 -384 -35 -76 -8 -160 -15 -187 -15 -85 0 -79 -66 -79 950 0 872
0 890 20 910 18 18 29 19 162 13 119 -5 153 -3 203 11 143 41 235 128 338 316
85 155 175 246 340 339 62 35 283 129 306 130 11 1 13 -12 8 -65z m713 -2628
c0 -6 5 -54 10 -106 25 -259 60 -713 56 -717 -5 -6 -126 86 -126 96 0 3 -16
192 -35 420 -19 228 -35 416 -35 418 0 9 130 -102 130 -111z m2801 60 c19 -8
46 -27 61 -43 84 -87 77 -223 -22 -418 -22 -44 -40 -83 -40 -87 0 -4 34 -5 75
-1 41 3 75 3 75 0 0 -4 -12 -31 -26 -60 l-27 -54 -121 -11 c-66 -5 -122 -9
-124 -8 -1 2 18 46 43 99 90 193 124 345 96 429 -29 87 -147 74 -277 -30 -96
-76 -95 -73 -79 -268 8 -93 17 -184 19 -202 4 -26 2 -33 -9 -28 -32 12 -115
82 -120 101 -4 19 -35 390 -35 429 0 17 -6 18 -51 13 -38 -5 -50 -3 -46 6 52
124 47 117 91 117 22 0 57 3 77 6 l36 6 8 -76 7 -76 47 49 c100 102 245 148
342 107z m-763 -81 c39 -18 56 -33 66 -57 11 -26 57 -489 56 -561 0 -16 -6
-14 -37 12 -21 17 -41 31 -46 31 -4 0 -20 -11 -35 -25 -65 -61 -248 -87 -353
-50 -104 37 -152 134 -118 236 21 61 76 107 207 171 140 68 199 112 181 134
-14 17 -151 19 -278 4 -47 -5 -87 -8 -89 -6 -2 3 9 31 24 65 32 70 20 66 239
69 119 2 134 0 183 -23z m-550 -12 c-2 -5 -15 -32 -28 -60 -17 -37 -31 -53
-44 -53 -17 0 -18 -6 -13 -57 25 -249 49 -615 43 -647 -10 -52 -84 -125 -154
-149 -107 -39 -241 -18 -350 54 l-50 32 15 44 c14 41 27 54 35 34 8 -21 159
-119 202 -131 57 -16 108 -3 157 37 l31 27 -7 150 c-4 83 -9 153 -11 155 -2 2
-24 -17 -50 -42 -59 -60 -117 -93 -198 -114 -60 -16 -68 -16 -118 0 -64 20
-111 64 -133 126 -30 87 -12 181 66 335 27 54 48 100 47 101 -2 1 -34 -1 -73
-5 -38 -4 -73 -5 -77 -3 -4 2 5 30 21 62 l30 58 118 10 c65 6 120 9 122 7 3
-3 -10 -33 -27 -68 -128 -258 -157 -461 -71 -506 29 -16 107 -7 154 17 41 22
147 109 165 137 9 14 9 51 -1 167 l-12 149 -48 0 c-27 0 -49 2 -49 5 0 2 12
29 27 59 26 54 28 55 77 61 134 14 209 17 204 8z m-3308 -82 c0 -13 -62 -81
-73 -81 -7 1 -30 16 -51 34 l-39 34 37 46 38 46 44 -36 c24 -20 44 -39 44 -43z
m-776 -42 l63 -50 7 -112 c4 -62 10 -129 14 -150 l7 -38 47 49 c26 27 78 64
115 83 58 29 77 34 138 34 93 0 145 -31 181 -108 43 -92 26 -204 -55 -364 -22
-46 -41 -86 -41 -89 0 -4 34 -4 75 0 41 4 75 5 75 3 0 -17 -54 -117 -63 -118
-7 0 -19 -2 -27 -3 -8 -2 -59 -7 -113 -11 -92 -6 -97 -6 -90 12 3 10 9 23 14
28 17 24 100 229 115 287 10 40 15 89 12 137 -3 63 -7 76 -28 93 -20 16 -36
19 -86 16 -50 -3 -72 -10 -115 -39 -72 -48 -149 -127 -149 -153 0 -12 7 -88
15 -171 8 -82 15 -167 15 -188 l0 -38 -64 51 -63 51 -7 92 c-4 51 -11 137 -16
192 -5 55 -16 188 -24 295 -9 107 -18 210 -21 228 -3 17 -3 32 0 32 3 0 34
-23 69 -51z m3189 29 c22 -7 54 -26 72 -43 l32 -30 17 -215 c10 -118 21 -245
25 -283 4 -37 5 -69 3 -72 -3 -2 -20 9 -39 25 -41 36 -45 37 -79 5 -72 -67
-267 -89 -370 -41 -91 42 -129 121 -104 214 18 70 71 119 189 174 165 77 232
128 199 150 -17 10 -170 9 -273 -2 -44 -4 -83 -5 -86 -2 -4 4 5 33 20 64 30
66 21 64 225 66 76 1 145 -3 169 -10z m-871 -85 c68 -31 78 -53 90 -190 5 -65
15 -190 22 -278 7 -88 12 -162 10 -164 -2 -2 -21 11 -43 29 l-41 32 -30 -30
c-39 -40 -107 -62 -206 -69 -167 -12 -274 61 -274 186 0 107 38 149 220 241
132 68 188 108 176 128 -12 20 -86 23 -221 12 -75 -7 -138 -10 -141 -7 -3 2 8
31 23 63 l28 59 65 6 c126 13 271 4 322 -18z m-684 -39 c81 -33 131 -111 132
-201 0 -65 -38 -185 -89 -281 -21 -40 -36 -74 -32 -76 3 -2 37 1 75 6 37 5 70
7 72 5 2 -2 -7 -29 -20 -59 -28 -63 -26 -62 -184 -74 l-94 -7 26 51 c40 80
102 242 115 300 23 110 8 210 -34 226 -47 18 -175 -12 -195 -45 -4 -5 -3 -42
1 -82 4 -39 12 -137 19 -217 6 -80 14 -165 17 -189 l6 -44 -61 47 c-34 25 -64
51 -68 57 -3 6 -14 107 -24 224 -10 117 -21 218 -25 224 -12 20 -57 12 -111
-20 l-54 -30 6 -52 c14 -131 39 -467 34 -467 -3 0 -32 22 -66 49 l-60 49 -17
208 c-10 115 -17 217 -17 228 0 16 -6 18 -50 14 -27 -3 -50 -3 -50 0 0 2 12
31 26 63 25 54 29 59 59 59 18 0 53 3 79 6 l46 7 0 -40 c0 -22 3 -43 6 -46 4
-4 25 9 47 29 77 70 176 95 217 54 19 -19 22 -20 53 -3 83 43 155 52 215 27z
m-920 -111 c32 -26 58 -48 60 -49 5 -3 53 -567 49 -571 -2 -1 -30 18 -63 43
-67 52 -69 58 -79 204 -6 99 -21 277 -31 368 -3 28 -2 52 1 52 4 0 32 -21 63
-47z m1466 -609 c9 -3 16 -15 16 -25 0 -16 -7 -19 -41 -19 -53 0 -50 -26 5
-45 43 -15 56 -29 56 -62 0 -42 -35 -64 -93 -61 -44 3 -52 6 -52 23 0 17 7 20
45 20 54 0 63 24 14 40 -58 19 -79 50 -63 93 12 33 72 52 113 36z m-174 -24
c26 -14 34 -57 15 -87 -15 -22 -15 -26 4 -57 27 -43 26 -46 -6 -46 -20 1 -34
10 -48 32 -30 48 -47 48 -43 2 3 -36 1 -39 -23 -42 l-26 -3 -2 82 c-1 45 -4
86 -7 91 -3 5 -3 15 0 23 6 18 106 21 136 5z m-199 -29 c39 -40 42 -115 5
-158 -21 -24 -31 -28 -77 -27 -70 1 -99 32 -99 105 0 42 5 55 29 80 23 23 38
29 71 29 33 0 48 -6 71 -29z m-211 -9 c0 -16 3 -63 6 -104 6 -71 5 -75 -15
-81 -11 -3 -23 -2 -25 1 -2 4 -7 53 -11 110 l-8 102 27 0 c22 0 26 -4 26 -28z
m-105 -2 c19 -16 19 -68 0 -90 -13 -15 -12 -20 10 -50 31 -42 31 -50 1 -50
-16 0 -31 12 -47 35 -31 45 -49 45 -49 0 0 -36 -22 -58 -39 -39 -5 5 -11 53
-15 106 -6 87 -5 97 11 102 30 8 111 0 128 -14z m-203 -12 c32 -16 35 -60 6
-99 -9 -14 -6 -23 17 -50 l28 -34 -28 -3 c-23 -3 -35 4 -60 34 -34 40 -46 36
-40 -14 4 -28 1 -32 -20 -32 -29 0 -32 11 -38 127 l-4 82 36 4 c41 4 78 -2
103 -15z m-194 -90 c23 -50 40 -98 38 -105 -8 -20 -43 -15 -49 7 -7 29 -86 29
-94 0 -5 -19 -39 -37 -51 -26 -6 6 32 151 51 194 7 15 19 22 36 22 23 0 31
-11 69 -92z m3904 -105 c2 -201 -1 -339 -8 -403 -11 -113 -37 -237 -63 -309
-33 -90 -158 -327 -198 -375 -14 -17 -50 -70 -82 -118 -31 -47 -118 -155 -193
-240 -75 -84 -145 -164 -156 -177 -19 -24 -19 -24 -38 -5 -10 11 -93 112 -184
223 -91 112 -169 209 -175 215 -5 6 -37 45 -70 86 -33 41 -84 104 -114 140
-29 36 -61 74 -70 85 -30 37 -186 230 -202 250 -103 124 -182 221 -269 330
-58 71 -112 139 -122 150 -115 139 -121 146 -142 143 -23 -3 -35 -19 -409
-513 -133 -175 -264 -347 -290 -382 -44 -57 -70 -76 -79 -55 -1 4 -28 27 -58
52 -30 25 -66 55 -80 67 -98 84 -127 103 -149 101 -21 -3 -56 -52 -202 -283
-290 -457 -314 -494 -324 -515 -5 -11 -15 -22 -22 -24 -23 -9 -283 273 -355
385 -9 15 -39 52 -66 83 -56 64 -203 306 -245 404 -49 115 -68 207 -74 353
l-5 136 88 6 c49 4 157 14 239 22 83 8 213 19 290 25 77 6 210 17 295 26 195
18 450 41 555 49 44 3 87 8 95 10 8 2 85 9 170 15 148 11 449 38 665 60 101
11 175 17 520 44 105 9 260 22 345 30 85 9 234 22 330 31 96 9 218 20 270 26
52 5 180 16 284 24 104 8 192 17 194 20 3 3 27 5 54 5 l48 0 2 -197z m-4077
145 c-4 -24 -12 -70 -19 -103 -10 -54 -15 -60 -38 -63 -23 -3 -28 2 -43 48 -9
28 -20 48 -24 45 -3 -4 -11 -28 -16 -53 -9 -40 -14 -47 -37 -50 -26 -3 -28 1
-57 93 -17 52 -31 100 -31 106 0 6 12 9 27 7 25 -3 29 -9 42 -65 8 -35 18 -63
22 -63 4 0 11 25 14 55 7 51 9 55 34 55 24 0 29 -6 40 -50 15 -57 31 -66 31
-16 0 68 11 96 37 96 23 0 24 -2 18 -42z m1809 -830 c-2 -24 -5 -92 -8 -151
-4 -113 3 -137 42 -137 9 0 98 67 197 150 99 82 184 148 189 146 5 -1 39 -66
74 -144 l66 -143 167 -90 168 -90 208 -203 c114 -112 243 -236 286 -276 42
-41 77 -77 77 -82 0 -11 -232 -236 -305 -297 -27 -23 -72 -57 -100 -76 -27
-19 -80 -59 -117 -88 -36 -28 -91 -65 -121 -81 -31 -16 -72 -44 -91 -62 -20
-19 -41 -34 -47 -34 -6 0 -22 -9 -36 -20 -14 -11 -31 -20 -38 -20 -7 0 -18 -7
-25 -15 -7 -8 -20 -15 -30 -15 -9 0 -34 -11 -54 -25 -48 -33 -56 -32 -56 8 0
17 -7 41 -15 51 -17 22 -20 14 -5 -14 7 -13 6 -19 -4 -23 -9 -4 -16 5 -21 26
-5 19 -9 26 -12 16 -2 -9 1 -35 6 -59 12 -52 3 -73 -40 -96 -36 -18 -40 -15
-56 34 l-11 37 1 -50 c2 -45 0 -50 -28 -64 -39 -20 -147 -51 -157 -45 -5 3 -8
39 -8 81 0 88 -7 90 -20 8 -5 -32 -11 -59 -13 -61 -1 -2 -12 -1 -24 2 -16 5
-22 17 -27 56 l-7 51 -25 -37 c-14 -21 -28 -35 -32 -32 -3 4 4 19 15 34 11 15
23 45 26 67 18 119 18 121 7 96 -21 -49 -32 -55 -45 -24 -11 27 -12 26 -14
-22 -2 -84 -5 -90 -34 -87 -22 3 -26 0 -21 -15 5 -16 4 -16 -10 1 -9 11 -16
14 -16 8 0 -18 -22 -14 -50 8 -14 11 -30 20 -37 20 -7 0 -32 14 -57 30 -24 17
-60 37 -78 45 -30 12 -122 67 -153 92 -42 32 -105 73 -114 73 -6 0 -11 3 -11
8 0 4 -12 15 -28 24 -15 9 -49 33 -77 53 -27 20 -75 53 -105 73 -73 48 -77 51
-124 97 -23 23 -66 58 -96 80 -68 48 -205 162 -245 204 -27 29 -28 33 -15 56
8 13 42 52 75 87 33 35 103 110 155 168 52 58 113 125 136 150 22 25 69 77
105 117 35 39 66 71 69 72 3 0 38 -44 79 -98 91 -124 107 -141 130 -141 12 0
81 71 184 188 91 103 173 196 183 207 11 11 61 68 113 128 52 59 98 107 102
107 3 0 5 -19 3 -42z"/>
<path d="M6726 6351 c-17 -6 -17 -8 -4 -14 10 -3 19 0 22 9 3 8 4 14 3 13 -1
0 -11 -4 -21 -8z"/>
<path d="M6817 6344 c2 -7 11 -10 19 -7 19 7 18 10 -5 16 -13 3 -18 1 -14 -9z"/>
<path d="M6650 6311 c0 -5 -8 -11 -17 -13 -15 -3 -14 -5 5 -10 17 -5 22 -2 22
13 0 10 -2 19 -5 19 -3 0 -5 -4 -5 -9z"/>
<path d="M6900 6302 c0 -14 6 -22 16 -22 14 0 15 3 3 18 -7 9 -15 19 -16 21
-2 2 -3 -5 -3 -17z"/>
<path d="M6593 6228 c3 -10 2 -18 -3 -18 -6 0 -10 -4 -10 -9 0 -5 9 -7 20 -4
24 6 25 10 3 31 -16 16 -16 16 -10 0z"/>
<path d="M6950 6220 c-17 -11 -13 -15 20 -24 14 -4 20 -4 14 1 -6 4 -13 13
-15 20 -3 8 -9 9 -19 3z"/>
<path d="M6588 6123 c6 -2 10 -9 7 -14 -4 -5 1 -6 9 -3 24 9 19 24 -6 23 -13
0 -17 -3 -10 -6z"/>
<path d="M6940 6121 c0 -5 6 -11 13 -14 8 -3 14 1 14 9 0 8 -6 14 -14 14 -7 0
-13 -4 -13 -9z"/>
<path d="M6630 6040 c-23 -7 -23 -8 -3 -9 12 -1 24 -7 26 -13 3 -7 6 -3 6 10
1 12 0 22 -1 21 -2 -1 -14 -5 -28 -9z"/>
<path d="M6900 6023 c0 -11 3 -14 8 -7 4 6 14 14 22 17 10 4 8 6 -7 6 -16 1
-23 -5 -23 -16z"/>
<path d="M6719 5983 c-7 -10 -9 -15 -5 -11 5 4 15 3 22 -3 9 -8 11 -5 7 10 -6
25 -7 25 -24 4z"/>
<path d="M6816 5984 c-9 -24 -7 -28 9 -14 17 14 20 30 6 30 -5 0 -12 -7 -15
-16z"/>
<path d="M3273 6262 c-8 -5 -9 -13 -3 -22 7 -12 10 -12 16 3 8 21 3 29 -13 19z"/>
<path d="M3330 6255 c0 -21 16 -27 29 -11 9 11 7 15 -9 19 -13 3 -20 0 -20 -8z"/>
<path d="M3210 6216 c0 -9 5 -16 10 -16 6 0 10 4 10 9 0 6 -4 13 -10 16 -5 3
-10 -1 -10 -9z"/>
<path d="M3395 6219 c-4 -6 -5 -13 -2 -16 7 -7 27 6 27 18 0 12 -17 12 -25 -2z"/>
<path d="M2931 6204 c0 -11 3 -14 6 -6 3 7 2 16 -1 19 -3 4 -6 -2 -5 -13z"/>
<path d="M2980 6213 c0 -20 86 -97 140 -126 48 -25 55 -26 69 -13 18 18 15 22
-23 32 -21 5 -27 4 -22 -5 11 -18 -59 13 -93 41 -15 13 -38 36 -50 53 -11 16
-21 25 -21 18z"/>
<path d="M3605 6160 c-16 -16 -25 -30 -21 -30 7 0 56 49 56 56 0 8 -8 3 -35
-26z"/>
<path d="M2941 6164 c0 -11 3 -14 6 -6 3 7 2 16 -1 19 -3 4 -6 -2 -5 -13z"/>
<path d="M3431 6167 c-9 -12 -7 -16 9 -20 21 -5 25 0 11 21 -6 10 -10 10 -20
-1z"/>
<path d="M3166 6155 c-4 -12 -1 -16 11 -13 18 3 21 20 5 26 -5 1 -12 -4 -16
-13z"/>
<path d="M3438 6103 c-22 -6 -22 -10 -3 -30 13 -13 21 -13 48 -2 38 15 84 46
54 35 -48 -16 -70 -19 -63 -7 7 11 -4 13 -36 4z"/>
<path d="M2985 6067 c10 -15 20 -25 23 -22 3 3 -5 16 -17 28 l-23 22 17 -28z"/>
<path d="M3629 6063 c-13 -16 -12 -17 4 -4 16 13 21 21 13 21 -2 0 -10 -8 -17
-17z"/>
<path d="M3595 6030 c-3 -6 1 -7 9 -4 18 7 21 14 7 14 -6 0 -13 -4 -16 -10z"/>
<path d="M3040 6007 c0 -3 12 -12 26 -22 15 -9 23 -12 20 -6 -7 11 -46 35 -46
28z"/>
<path d="M3565 6000 c-3 -6 1 -7 9 -4 18 7 21 14 7 14 -6 0 -13 -4 -16 -10z"/>
<path d="M3480 5950 c-8 -5 -10 -10 -5 -10 6 0 17 5 25 10 8 5 11 10 5 10 -5
0 -17 -5 -25 -10z"/>
<path d="M3238 5913 c6 -2 18 -2 25 0 6 3 1 5 -13 5 -14 0 -19 -2 -12 -5z"/>
<path d="M3328 5913 c12 -2 30 -2 40 0 9 3 -1 5 -23 4 -22 0 -30 -2 -17 -4z"/>
<path d="M6855 4358 c-16 -11 -71 -39 -121 -64 -49 -24 -105 -60 -124 -79 -29
-30 -34 -43 -38 -94 -4 -54 -2 -62 23 -86 24 -25 32 -27 88 -23 71 5 122 26
174 74 31 29 37 41 40 86 2 29 0 87 -4 129 l-8 76 -30 -19z"/>
<path d="M5445 4243 c-11 -8 -65 -37 -120 -65 -143 -72 -175 -106 -175 -190 0
-33 6 -50 27 -72 25 -27 29 -28 94 -24 79 6 141 37 182 92 24 30 27 44 26 103
-1 37 -4 91 -7 120 -7 50 -8 51 -27 36z"/>
<path d="M4555 4171 c-6 -5 -55 -32 -111 -60 -55 -27 -116 -62 -134 -77 -80
-68 -80 -181 1 -214 67 -28 198 21 251 95 28 39 29 41 22 135 -8 106 -15 135
-29 121z"/>
<path d="M4210 3564 c0 -21 4 -25 23 -22 14 2 23 11 25 26 3 18 -1 22 -22 22
-21 0 -26 -5 -26 -26z"/>
<path d="M3982 3558 c-29 -29 -4 -108 34 -108 35 0 54 20 54 58 0 45 -14 62
-50 62 -14 0 -31 -5 -38 -12z"/>
<path d="M3680 3531 c0 -11 5 -23 10 -26 18 -11 50 6 50 26 0 14 -7 19 -30 19
-23 0 -30 -5 -30 -19z"/>
<path d="M3490 3515 c0 -27 26 -35 47 -14 17 17 4 39 -23 39 -19 0 -24 -5 -24
-25z"/>
<path d="M3301 3487 c-16 -41 -14 -47 15 -47 22 0 24 3 18 23 -14 48 -22 54
-33 24z"/>
<path d="M5905 2930 c3 -5 8 -10 11 -10 2 0 4 5 4 10 0 6 -5 10 -11 10 -5 0
-7 -4 -4 -10z"/>
<path d="M3461 2864 c-12 -34 -15 -36 -49 -30 l-37 5 35 -14 c49 -19 48 -19
60 26 14 52 8 60 -9 13z"/>
<path d="M3544 2860 c3 -14 6 -31 6 -37 0 -16 17 -16 55 2 l30 14 -34 -2 c-28
-2 -38 3 -49 23 l-14 25 6 -25z"/>
<path d="M3651 2768 l-31 -42 32 -18 c18 -9 38 -17 43 -17 6 0 -2 7 -17 15
-33 18 -34 26 -7 70 29 47 17 42 -20 -8z"/>
<path d="M3353 2762 c11 -31 10 -35 -12 -53 -13 -10 -20 -19 -16 -19 10 0 65
33 65 40 -1 3 -12 19 -25 35 l-25 30 13 -33z"/>
<path d="M3358 2623 c12 -2 27 -14 33 -25 7 -14 14 -17 21 -10 21 21 0 42 -39
41 -23 -1 -29 -3 -15 -6z"/>
<path d="M3604 2608 c3 -13 6 -34 7 -48 1 -16 4 -10 8 15 5 34 10 41 36 46 26
6 25 7 -14 8 -40 1 -43 -1 -37 -21z"/>
<path d="M3487 2562 c-23 -25 -21 -35 2 -20 16 10 23 9 39 -5 30 -27 36 -20
10 12 -28 36 -30 36 -51 13z"/>
<path d="M4290 2022 c0 -17 57 -87 111 -137 101 -95 220 -163 394 -225 99 -35
100 -35 103 -70 4 -44 21 -62 91 -102 84 -46 111 -75 109 -114 -1 -38 35 -97
89 -144 59 -52 178 -126 196 -122 39 8 2 53 -77 93 -50 24 -114 95 -126 138
-11 43 -5 107 17 160 13 30 17 33 45 27 42 -8 47 -15 24 -32 -29 -21 -7 -39
22 -18 27 19 28 38 1 65 -27 27 -21 49 18 72 45 26 92 15 106 -24 12 -32 37
-38 57 -14 11 13 11 27 0 73 -7 31 -20 65 -28 74 -15 18 -16 35 -7 118 l6 55
-25 -29 -25 -29 -13 34 -14 34 -18 -47 c-10 -26 -16 -54 -13 -62 7 -17 -46
-66 -71 -66 -25 0 -74 38 -112 87 -47 60 -106 103 -143 103 -22 0 -44 -14 -87
-54 -69 -63 -150 -106 -201 -106 -37 0 -159 55 -196 89 -10 9 -49 43 -88 76
-38 33 -81 70 -95 83 -25 22 -50 29 -50 14z"/>
<path d="M4932 1210 c0 -14 2 -19 5 -12 2 6 2 18 0 25 -3 6 -5 1 -5 -13z"/>
<path d="M5482 1205 c0 -16 2 -22 5 -12 2 9 2 23 0 30 -3 6 -5 -1 -5 -18z"/>
<path d="M5432 1090 c0 -14 2 -19 5 -12 2 6 2 18 0 25 -3 6 -5 1 -5 -13z"/>
<path d="M5391 1034 c0 -11 3 -14 6 -6 3 7 2 16 -1 19 -3 4 -6 -2 -5 -13z"/>
<path d="M4861 953 c-1 -23 3 -44 7 -47 4 -2 6 12 4 32 -5 56 -10 62 -11 15z"/>
<path d="M5241 945 c0 -11 4 -29 9 -40 l9 -20 0 20 c0 11 -4 29 -9 40 l-9 20
0 -20z"/>
<path d="M5162 930 c0 -14 2 -19 5 -12 2 6 2 18 0 25 -3 6 -5 1 -5 -13z"/>
<path d="M5332 925 c0 -16 2 -22 5 -12 2 9 2 23 0 30 -3 6 -5 -1 -5 -18z"/>
</g>
</svg>
